<mxfile host="app.diagrams.net" modified="2020-10-23T14:14:39.663Z" agent="5.0 (Windows NT 10.0; Win64; x64) AppleWebKit/537.36 (KHTML, like Gecko) Chrome/86.0.4240.111 Safari/537.36 Edg/86.0.622.51" etag="Ibowsa0eHw_qtMnfl2gL" version="13.8.1" type="github">
  <diagram id="WuAGs5mWrWRUK7TzIahD" name="Page-1">
    <mxGraphModel dx="1422" dy="772" grid="1" gridSize="10" guides="1" tooltips="1" connect="1" arrows="1" fold="1" page="1" pageScale="1" pageWidth="827" pageHeight="1169" math="0" shadow="0">
      <root>
        <mxCell id="0" />
        <mxCell id="1" parent="0" />
        <mxCell id="YXsqMxvUuQJGhp08czk--4" value="" style="edgeStyle=orthogonalEdgeStyle;rounded=0;orthogonalLoop=1;jettySize=auto;html=1;" edge="1" parent="1" source="YXsqMxvUuQJGhp08czk--1" target="YXsqMxvUuQJGhp08czk--3">
          <mxGeometry relative="1" as="geometry" />
        </mxCell>
        <mxCell id="YXsqMxvUuQJGhp08czk--1" value="START" style="html=1;dashed=0;whitespace=wrap;shape=mxgraph.dfd.start" vertex="1" parent="1">
          <mxGeometry x="484" y="40" width="166" height="50" as="geometry" />
        </mxCell>
        <mxCell id="YXsqMxvUuQJGhp08czk--2" value="END" style="html=1;dashed=0;whitespace=wrap;shape=mxgraph.dfd.start" vertex="1" parent="1">
          <mxGeometry x="523.5" y="950" width="166" height="50" as="geometry" />
        </mxCell>
        <mxCell id="YXsqMxvUuQJGhp08czk--6" value="" style="edgeStyle=orthogonalEdgeStyle;rounded=0;orthogonalLoop=1;jettySize=auto;html=1;" edge="1" parent="1" source="YXsqMxvUuQJGhp08czk--3" target="YXsqMxvUuQJGhp08czk--5">
          <mxGeometry relative="1" as="geometry" />
        </mxCell>
        <mxCell id="YXsqMxvUuQJGhp08czk--3" value="&lt;b&gt;Инициализация:&lt;/b&gt;&lt;br&gt;Время на обработку&lt;br&gt;Ускоренно\Реально&lt;br&gt;Счетчик брака&lt;br&gt;Повторная обработка на 1 станке?&lt;br&gt;Время до коробки&lt;br&gt;2_stan&lt;br&gt;Объекты 2&lt;br&gt;Defect&lt;br&gt;Время между станками&lt;br&gt;брак" style="whiteSpace=wrap;html=1;dashed=0;" vertex="1" parent="1">
          <mxGeometry x="467.25" y="110" width="199.5" height="175" as="geometry" />
        </mxCell>
        <mxCell id="YXsqMxvUuQJGhp08czk--8" value="" style="edgeStyle=orthogonalEdgeStyle;rounded=0;orthogonalLoop=1;jettySize=auto;html=1;" edge="1" parent="1" source="YXsqMxvUuQJGhp08czk--5" target="YXsqMxvUuQJGhp08czk--7">
          <mxGeometry relative="1" as="geometry" />
        </mxCell>
        <mxCell id="YXsqMxvUuQJGhp08czk--13" value="" style="edgeStyle=orthogonalEdgeStyle;rounded=0;orthogonalLoop=1;jettySize=auto;html=1;" edge="1" parent="1" source="YXsqMxvUuQJGhp08czk--5" target="YXsqMxvUuQJGhp08czk--12">
          <mxGeometry relative="1" as="geometry" />
        </mxCell>
        <mxCell id="YXsqMxvUuQJGhp08czk--17" value="" style="edgeStyle=orthogonalEdgeStyle;rounded=0;orthogonalLoop=1;jettySize=auto;html=1;" edge="1" parent="1" source="YXsqMxvUuQJGhp08czk--5" target="YXsqMxvUuQJGhp08czk--16">
          <mxGeometry relative="1" as="geometry" />
        </mxCell>
        <mxCell id="YXsqMxvUuQJGhp08czk--5" value="&lt;span&gt;Ускоренно\&lt;br&gt;Реально&lt;/span&gt;" style="rhombus;whiteSpace=wrap;html=1;" vertex="1" parent="1">
          <mxGeometry x="520.5" y="310" width="93" height="100" as="geometry" />
        </mxCell>
        <mxCell id="YXsqMxvUuQJGhp08czk--7" value="NONE" style="whiteSpace=wrap;html=1;" vertex="1" parent="1">
          <mxGeometry x="680" y="330" width="120" height="60" as="geometry" />
        </mxCell>
        <mxCell id="YXsqMxvUuQJGhp08czk--9" value="&lt;font style=&quot;font-size: 18px&quot;&gt;False&lt;/font&gt;" style="text;html=1;align=center;verticalAlign=middle;resizable=0;points=[];autosize=1;" vertex="1" parent="1">
          <mxGeometry x="600" y="330" width="60" height="20" as="geometry" />
        </mxCell>
        <mxCell id="YXsqMxvUuQJGhp08czk--10" value="&lt;font style=&quot;font-size: 18px&quot;&gt;True&lt;/font&gt;" style="text;html=1;align=center;verticalAlign=middle;resizable=0;points=[];autosize=1;" vertex="1" parent="1">
          <mxGeometry x="455" y="330" width="50" height="20" as="geometry" />
        </mxCell>
        <mxCell id="YXsqMxvUuQJGhp08czk--15" value="" style="edgeStyle=orthogonalEdgeStyle;rounded=0;orthogonalLoop=1;jettySize=auto;html=1;" edge="1" parent="1" source="YXsqMxvUuQJGhp08czk--12" target="YXsqMxvUuQJGhp08czk--14">
          <mxGeometry relative="1" as="geometry" />
        </mxCell>
        <mxCell id="YXsqMxvUuQJGhp08czk--12" value="Запуск подпрограммы &quot;&lt;b&gt;Delay.vi&lt;/b&gt;&quot; с параметром &lt;b&gt;&quot;Время загрузки первого станка&quot;&lt;/b&gt;" style="shape=process;whiteSpace=wrap;html=1;backgroundOutline=1;" vertex="1" parent="1">
          <mxGeometry x="325" y="315" width="130" height="90" as="geometry" />
        </mxCell>
        <mxCell id="YXsqMxvUuQJGhp08czk--14" value="Запуск подпрограммы &quot;&lt;b&gt;Delay.vi&lt;/b&gt;&quot; с параметром &lt;b&gt;&quot;Время на обработку&quot;&lt;/b&gt;" style="shape=process;whiteSpace=wrap;html=1;backgroundOutline=1;" vertex="1" parent="1">
          <mxGeometry x="170" y="315" width="130" height="90" as="geometry" />
        </mxCell>
        <mxCell id="YXsqMxvUuQJGhp08czk--21" value="" style="edgeStyle=orthogonalEdgeStyle;rounded=0;orthogonalLoop=1;jettySize=auto;html=1;" edge="1" parent="1" source="YXsqMxvUuQJGhp08czk--16">
          <mxGeometry relative="1" as="geometry">
            <mxPoint x="680" y="490" as="targetPoint" />
          </mxGeometry>
        </mxCell>
        <mxCell id="YXsqMxvUuQJGhp08czk--23" value="" style="edgeStyle=orthogonalEdgeStyle;rounded=0;orthogonalLoop=1;jettySize=auto;html=1;entryX=1;entryY=0.5;entryDx=0;entryDy=0;" edge="1" parent="1" source="YXsqMxvUuQJGhp08czk--16" target="YXsqMxvUuQJGhp08czk--27">
          <mxGeometry relative="1" as="geometry">
            <mxPoint x="454" y="490" as="targetPoint" />
          </mxGeometry>
        </mxCell>
        <mxCell id="YXsqMxvUuQJGhp08czk--16" value="Defect ?" style="rhombus;whiteSpace=wrap;html=1;" vertex="1" parent="1">
          <mxGeometry x="520.5" y="440" width="93" height="100" as="geometry" />
        </mxCell>
        <mxCell id="YXsqMxvUuQJGhp08czk--56" value="" style="edgeStyle=orthogonalEdgeStyle;rounded=0;orthogonalLoop=1;jettySize=auto;html=1;" edge="1" parent="1" source="YXsqMxvUuQJGhp08czk--18" target="YXsqMxvUuQJGhp08czk--55">
          <mxGeometry relative="1" as="geometry" />
        </mxCell>
        <mxCell id="YXsqMxvUuQJGhp08czk--60" value="" style="edgeStyle=orthogonalEdgeStyle;rounded=0;orthogonalLoop=1;jettySize=auto;html=1;" edge="1" parent="1" source="YXsqMxvUuQJGhp08czk--18" target="YXsqMxvUuQJGhp08czk--59">
          <mxGeometry relative="1" as="geometry" />
        </mxCell>
        <mxCell id="YXsqMxvUuQJGhp08czk--18" value="&lt;span&gt;Ускоренно\&lt;br&gt;Реально&lt;/span&gt;" style="rhombus;whiteSpace=wrap;html=1;" vertex="1" parent="1">
          <mxGeometry x="560" y="730" width="93" height="100" as="geometry" />
        </mxCell>
        <mxCell id="YXsqMxvUuQJGhp08czk--24" value="&lt;font style=&quot;font-size: 18px&quot;&gt;False&lt;/font&gt;" style="text;html=1;align=center;verticalAlign=middle;resizable=0;points=[];autosize=1;" vertex="1" parent="1">
          <mxGeometry x="600" y="460" width="60" height="20" as="geometry" />
        </mxCell>
        <mxCell id="YXsqMxvUuQJGhp08czk--25" value="Запуск подпрограммы &quot;&lt;b&gt;Delay.vi&lt;/b&gt;&quot; с параметром &lt;b&gt;&quot;Время до коробки&quot;&lt;/b&gt;" style="shape=process;whiteSpace=wrap;html=1;backgroundOutline=1;" vertex="1" parent="1">
          <mxGeometry x="680" y="445" width="130" height="90" as="geometry" />
        </mxCell>
        <mxCell id="YXsqMxvUuQJGhp08czk--26" value="&lt;font style=&quot;font-size: 18px&quot;&gt;True&lt;/font&gt;" style="text;html=1;align=center;verticalAlign=middle;resizable=0;points=[];autosize=1;" vertex="1" parent="1">
          <mxGeometry x="480" y="460" width="50" height="20" as="geometry" />
        </mxCell>
        <mxCell id="YXsqMxvUuQJGhp08czk--31" value="" style="edgeStyle=orthogonalEdgeStyle;rounded=0;orthogonalLoop=1;jettySize=auto;html=1;" edge="1" parent="1" source="YXsqMxvUuQJGhp08czk--27" target="YXsqMxvUuQJGhp08czk--30">
          <mxGeometry relative="1" as="geometry" />
        </mxCell>
        <mxCell id="YXsqMxvUuQJGhp08czk--45" value="" style="edgeStyle=orthogonalEdgeStyle;rounded=0;orthogonalLoop=1;jettySize=auto;html=1;" edge="1" parent="1" source="YXsqMxvUuQJGhp08czk--27" target="YXsqMxvUuQJGhp08czk--44">
          <mxGeometry relative="1" as="geometry" />
        </mxCell>
        <mxCell id="YXsqMxvUuQJGhp08czk--27" value="!Повторная обработка на 1 станке?" style="rhombus;whiteSpace=wrap;html=1;" vertex="1" parent="1">
          <mxGeometry x="333.5" y="435" width="113" height="110" as="geometry" />
        </mxCell>
        <mxCell id="YXsqMxvUuQJGhp08czk--33" style="edgeStyle=orthogonalEdgeStyle;rounded=0;orthogonalLoop=1;jettySize=auto;html=1;entryX=1;entryY=0.5;entryDx=0;entryDy=0;" edge="1" parent="1" source="YXsqMxvUuQJGhp08czk--30" target="YXsqMxvUuQJGhp08czk--32">
          <mxGeometry relative="1" as="geometry" />
        </mxCell>
        <mxCell id="YXsqMxvUuQJGhp08czk--35" value="" style="edgeStyle=orthogonalEdgeStyle;rounded=0;orthogonalLoop=1;jettySize=auto;html=1;" edge="1" parent="1" source="YXsqMxvUuQJGhp08czk--30" target="YXsqMxvUuQJGhp08czk--34">
          <mxGeometry relative="1" as="geometry" />
        </mxCell>
        <mxCell id="YXsqMxvUuQJGhp08czk--30" value="Загрузка в очередь &lt;b&gt;2_stan &lt;/b&gt;элемента &lt;b&gt;&quot;START&quot;&lt;/b&gt;" style="whiteSpace=wrap;html=1;" vertex="1" parent="1">
          <mxGeometry x="150" y="460" width="120" height="60" as="geometry" />
        </mxCell>
        <mxCell id="YXsqMxvUuQJGhp08czk--32" value="&lt;font style=&quot;font-size: 18px&quot;&gt;&lt;b&gt;2&lt;/b&gt;&lt;/font&gt;" style="ellipse;whiteSpace=wrap;html=1;aspect=fixed;" vertex="1" parent="1">
          <mxGeometry x="90" y="470" width="40" height="40" as="geometry" />
        </mxCell>
        <mxCell id="YXsqMxvUuQJGhp08czk--37" value="" style="edgeStyle=orthogonalEdgeStyle;rounded=0;orthogonalLoop=1;jettySize=auto;html=1;" edge="1" parent="1" source="YXsqMxvUuQJGhp08czk--34" target="YXsqMxvUuQJGhp08czk--36">
          <mxGeometry relative="1" as="geometry" />
        </mxCell>
        <mxCell id="YXsqMxvUuQJGhp08czk--40" value="" style="edgeStyle=orthogonalEdgeStyle;rounded=0;orthogonalLoop=1;jettySize=auto;html=1;" edge="1" parent="1" source="YXsqMxvUuQJGhp08czk--34" target="YXsqMxvUuQJGhp08czk--39">
          <mxGeometry relative="1" as="geometry" />
        </mxCell>
        <mxCell id="YXsqMxvUuQJGhp08czk--34" value="&lt;span&gt;Ускоренно\&lt;br&gt;Реально&lt;/span&gt;" style="rhombus;whiteSpace=wrap;html=1;" vertex="1" parent="1">
          <mxGeometry x="163.5" y="545" width="93" height="100" as="geometry" />
        </mxCell>
        <mxCell id="YXsqMxvUuQJGhp08czk--36" value="Запуск подпрограммы &quot;&lt;b&gt;Delay.vi&lt;/b&gt;&quot; с параметром &lt;b&gt;&quot;Время на загрузку&quot;&lt;/b&gt;" style="shape=process;whiteSpace=wrap;html=1;backgroundOutline=1;" vertex="1" parent="1">
          <mxGeometry x="145" y="680" width="130" height="90" as="geometry" />
        </mxCell>
        <mxCell id="YXsqMxvUuQJGhp08czk--38" value="&lt;font style=&quot;font-size: 18px&quot;&gt;True&lt;/font&gt;" style="text;html=1;align=center;verticalAlign=middle;resizable=0;points=[];autosize=1;" vertex="1" parent="1">
          <mxGeometry x="163.5" y="645" width="50" height="20" as="geometry" />
        </mxCell>
        <mxCell id="YXsqMxvUuQJGhp08czk--39" value="NONE" style="whiteSpace=wrap;html=1;" vertex="1" parent="1">
          <mxGeometry y="565" width="120" height="60" as="geometry" />
        </mxCell>
        <mxCell id="YXsqMxvUuQJGhp08czk--41" value="&lt;font style=&quot;font-size: 18px&quot;&gt;False&lt;/font&gt;" style="text;html=1;align=center;verticalAlign=middle;resizable=0;points=[];autosize=1;" vertex="1" parent="1">
          <mxGeometry x="120" y="560" width="60" height="20" as="geometry" />
        </mxCell>
        <mxCell id="YXsqMxvUuQJGhp08czk--42" value="&lt;font style=&quot;font-size: 18px&quot;&gt;True&lt;/font&gt;" style="text;html=1;align=center;verticalAlign=middle;resizable=0;points=[];autosize=1;" vertex="1" parent="1">
          <mxGeometry x="283.5" y="460" width="50" height="20" as="geometry" />
        </mxCell>
        <mxCell id="YXsqMxvUuQJGhp08czk--43" value="&lt;font style=&quot;font-size: 18px&quot;&gt;False&lt;/font&gt;" style="text;html=1;align=center;verticalAlign=middle;resizable=0;points=[];autosize=1;" vertex="1" parent="1">
          <mxGeometry x="407.25" y="535" width="60" height="20" as="geometry" />
        </mxCell>
        <mxCell id="YXsqMxvUuQJGhp08czk--47" value="" style="edgeStyle=orthogonalEdgeStyle;rounded=0;orthogonalLoop=1;jettySize=auto;html=1;" edge="1" parent="1" source="YXsqMxvUuQJGhp08czk--44" target="YXsqMxvUuQJGhp08czk--46">
          <mxGeometry relative="1" as="geometry" />
        </mxCell>
        <mxCell id="YXsqMxvUuQJGhp08czk--44" value="&lt;span&gt;Ускоренно\&lt;br&gt;Реально&lt;/span&gt;" style="rhombus;whiteSpace=wrap;html=1;" vertex="1" parent="1">
          <mxGeometry x="343.5" y="560" width="93" height="100" as="geometry" />
        </mxCell>
        <mxCell id="YXsqMxvUuQJGhp08czk--46" value="Запуск подпрограммы &quot;&lt;b&gt;Delay.vi&lt;/b&gt;&quot; с параметром &lt;b&gt;&quot;&lt;/b&gt;&lt;b&gt;Время на обработку&lt;/b&gt;&lt;b&gt;&quot;&lt;/b&gt;" style="shape=process;whiteSpace=wrap;html=1;backgroundOutline=1;" vertex="1" parent="1">
          <mxGeometry x="325" y="710" width="130" height="90" as="geometry" />
        </mxCell>
        <mxCell id="YXsqMxvUuQJGhp08czk--48" value="NONE" style="whiteSpace=wrap;html=1;" vertex="1" parent="1">
          <mxGeometry x="275" y="810" width="120" height="60" as="geometry" />
        </mxCell>
        <mxCell id="YXsqMxvUuQJGhp08czk--49" value="" style="endArrow=classic;html=1;entryX=0.25;entryY=0;entryDx=0;entryDy=0;" edge="1" parent="1" target="YXsqMxvUuQJGhp08czk--48">
          <mxGeometry width="50" height="50" relative="1" as="geometry">
            <mxPoint x="340" y="610" as="sourcePoint" />
            <mxPoint x="390" y="680" as="targetPoint" />
            <Array as="points">
              <mxPoint x="305" y="610" />
            </Array>
          </mxGeometry>
        </mxCell>
        <mxCell id="YXsqMxvUuQJGhp08czk--50" value="&lt;font style=&quot;font-size: 18px&quot;&gt;False&lt;/font&gt;" style="text;html=1;align=center;verticalAlign=middle;resizable=0;points=[];autosize=1;" vertex="1" parent="1">
          <mxGeometry x="290" y="580" width="60" height="20" as="geometry" />
        </mxCell>
        <mxCell id="YXsqMxvUuQJGhp08czk--51" value="&lt;font style=&quot;font-size: 18px&quot;&gt;True&lt;/font&gt;" style="text;html=1;align=center;verticalAlign=middle;resizable=0;points=[];autosize=1;" vertex="1" parent="1">
          <mxGeometry x="333.5" y="660" width="50" height="20" as="geometry" />
        </mxCell>
        <mxCell id="YXsqMxvUuQJGhp08czk--52" value="" style="endArrow=classic;html=1;exitX=1;exitY=0.5;exitDx=0;exitDy=0;entryX=0.5;entryY=0;entryDx=0;entryDy=0;" edge="1" parent="1" source="YXsqMxvUuQJGhp08czk--44" target="YXsqMxvUuQJGhp08czk--53">
          <mxGeometry width="50" height="50" relative="1" as="geometry">
            <mxPoint x="340" y="610" as="sourcePoint" />
            <mxPoint x="520" y="620" as="targetPoint" />
            <Array as="points">
              <mxPoint x="524" y="610" />
            </Array>
          </mxGeometry>
        </mxCell>
        <mxCell id="YXsqMxvUuQJGhp08czk--53" value="Запуск подпрограммы &quot;&lt;b&gt;To work on 1&lt;/b&gt;&quot;&lt;br&gt;с параметром &lt;b&gt;Объекты 2&amp;nbsp;&lt;/b&gt;" style="shape=process;whiteSpace=wrap;html=1;backgroundOutline=1;" vertex="1" parent="1">
          <mxGeometry x="459" y="630" width="130" height="90" as="geometry" />
        </mxCell>
        <mxCell id="YXsqMxvUuQJGhp08czk--54" value="" style="endArrow=classic;html=1;exitX=0.5;exitY=1;exitDx=0;exitDy=0;entryX=0.5;entryY=0;entryDx=0;entryDy=0;" edge="1" parent="1" source="YXsqMxvUuQJGhp08czk--16" target="YXsqMxvUuQJGhp08czk--18">
          <mxGeometry width="50" height="50" relative="1" as="geometry">
            <mxPoint x="340" y="620" as="sourcePoint" />
            <mxPoint x="390" y="570" as="targetPoint" />
            <Array as="points">
              <mxPoint x="567" y="580" />
              <mxPoint x="607" y="580" />
            </Array>
          </mxGeometry>
        </mxCell>
        <mxCell id="YXsqMxvUuQJGhp08czk--57" value="" style="edgeStyle=orthogonalEdgeStyle;rounded=0;orthogonalLoop=1;jettySize=auto;html=1;" edge="1" parent="1" source="YXsqMxvUuQJGhp08czk--55" target="YXsqMxvUuQJGhp08czk--2">
          <mxGeometry relative="1" as="geometry" />
        </mxCell>
        <mxCell id="YXsqMxvUuQJGhp08czk--55" value="&lt;span&gt;брак = Счетчик брака&lt;/span&gt;" style="whiteSpace=wrap;html=1;" vertex="1" parent="1">
          <mxGeometry x="546.5" y="860" width="120" height="60" as="geometry" />
        </mxCell>
        <mxCell id="YXsqMxvUuQJGhp08czk--58" value="&lt;font style=&quot;font-size: 18px&quot;&gt;False&lt;/font&gt;" style="text;html=1;align=center;verticalAlign=middle;resizable=0;points=[];autosize=1;" vertex="1" parent="1">
          <mxGeometry x="640" y="745" width="60" height="20" as="geometry" />
        </mxCell>
        <mxCell id="YXsqMxvUuQJGhp08czk--59" value="NONE" style="whiteSpace=wrap;html=1;" vertex="1" parent="1">
          <mxGeometry x="700" y="750" width="120" height="60" as="geometry" />
        </mxCell>
        <mxCell id="YXsqMxvUuQJGhp08czk--61" value="&lt;font style=&quot;font-size: 18px&quot;&gt;True&lt;/font&gt;" style="text;html=1;align=center;verticalAlign=middle;resizable=0;points=[];autosize=1;" vertex="1" parent="1">
          <mxGeometry x="520.5" y="750" width="50" height="20" as="geometry" />
        </mxCell>
        <mxCell id="YXsqMxvUuQJGhp08czk--62" value="Запуск подпрограммы &quot;&lt;b&gt;Delay.vi&lt;/b&gt;&quot; с параметром &lt;b&gt;&quot;Время между станками&quot;&lt;/b&gt;" style="shape=process;whiteSpace=wrap;html=1;backgroundOutline=1;" vertex="1" parent="1">
          <mxGeometry x="407.25" y="820" width="130" height="90" as="geometry" />
        </mxCell>
        <mxCell id="YXsqMxvUuQJGhp08czk--63" value="" style="endArrow=classic;html=1;exitX=0;exitY=0.5;exitDx=0;exitDy=0;entryX=0.5;entryY=0;entryDx=0;entryDy=0;" edge="1" parent="1" source="YXsqMxvUuQJGhp08czk--18" target="YXsqMxvUuQJGhp08czk--62">
          <mxGeometry width="50" height="50" relative="1" as="geometry">
            <mxPoint x="300" y="760" as="sourcePoint" />
            <mxPoint x="350" y="710" as="targetPoint" />
            <Array as="points">
              <mxPoint x="472" y="780" />
            </Array>
          </mxGeometry>
        </mxCell>
      </root>
    </mxGraphModel>
  </diagram>
</mxfile>
